<svg xmlns="http://www.w3.org/2000/svg" width="800" height="400" viewBox="0 0 800 400">
  <rect width="800" height="400" fill="#eef2ff"/>
  <text x="400" y="45" text-anchor="middle" fill="#1e1b4b" font-size="22" font-family="system-ui" font-weight="700">How Linear Regression Works</text>
  <line x1="100" y1="340" x2="700" y2="340" stroke="#94a3b8" stroke-width="1.5"/>
  <line x1="100" y1="70" x2="100" y2="340" stroke="#94a3b8" stroke-width="1.5"/>
  <text x="400" y="380" text-anchor="middle" fill="#475569" font-size="14" font-family="system-ui">Independent Variable (x)</text>
  <text x="40" y="210" text-anchor="middle" fill="#475569" font-size="14" font-family="system-ui" transform="rotate(-90, 40, 210)">Dependent Variable (y)</text>
  <circle cx="160" cy="310" r="7" fill="#818cf8" opacity="0.7"/>
  <circle cx="210" cy="290" r="7" fill="#818cf8" opacity="0.7"/>
  <circle cx="260" cy="275" r="7" fill="#818cf8" opacity="0.7"/>
  <circle cx="310" cy="260" r="7" fill="#818cf8" opacity="0.7"/>
  <circle cx="360" cy="240" r="7" fill="#818cf8" opacity="0.7"/>
  <circle cx="410" cy="225" r="7" fill="#818cf8" opacity="0.7"/>
  <circle cx="460" cy="200" r="7" fill="#818cf8" opacity="0.7"/>
  <circle cx="510" cy="185" r="7" fill="#818cf8" opacity="0.7"/>
  <circle cx="560" cy="165" r="7" fill="#818cf8" opacity="0.7"/>
  <circle cx="610" cy="145" r="7" fill="#818cf8" opacity="0.7"/>
  <circle cx="660" cy="120" r="7" fill="#818cf8" opacity="0.7"/>
  <line x1="130" y1="325" x2="680" y2="100" stroke="#6366f1" stroke-width="3"/>
  <line x1="360" y1="240" x2="360" y2="192" stroke="#ef4444" stroke-width="1.5" stroke-dasharray="4"/>
  <line x1="360" y1="192" x2="457" y2="192" stroke="#ef4444" stroke-width="1.5" stroke-dasharray="4"/>
  <circle cx="457" cy="192" r="4" fill="#ef4444"/>
  <text x="420" y="220" fill="#ef4444" font-size="11" font-family="system-ui">Residual</text>
  <rect x="500" y="50" width="230" height="75" rx="12" fill="#312e81"/>
  <text x="615" y="80" text-anchor="middle" fill="#e0e7ff" font-size="16" font-family="monospace" font-weight="700">y = mx + b</text>
  <text x="615" y="108" text-anchor="middle" fill="#94a3b8" font-size="12" font-family="system-ui">The Regression Equation</text>
</svg>
